<svg width="225" height="23" viewBox="0 0 225 23" fill="none" xmlns="http://www.w3.org/2000/svg">
<path d="M19.1611 22.44C19.1411 22.56 19.0211 22.59 18.8011 22.53C18.6011 22.49 18.4211 22.35 18.2611 22.11C18.1011 21.73 18.0211 21.38 18.0211 21.06C18.0211 20.74 18.0311 20.26 18.0511 19.62C18.1711 18.92 18.3311 18.01 18.5311 16.89C18.7511 15.75 19.0011 14.48 19.2811 13.08C19.5811 11.66 19.9011 10.18 20.2411 8.64C20.4811 7.84 20.6711 7.11 20.8111 6.45C20.9711 5.77 21.0911 5.22 21.1711 4.8C21.2511 4.38 21.2911 4.17 21.2911 4.17C21.2911 4.11 21.2311 4.14 21.1111 4.26C21.0111 4.36 20.9111 4.48 20.8111 4.62C20.7111 4.76 20.6711 4.87 20.6911 4.95C20.6911 4.95 20.6211 5.05 20.4811 5.25C20.3411 5.45 20.1611 5.72 19.9411 6.06C19.7411 6.26 19.5011 6.66 19.2211 7.26C18.9411 7.86 18.6311 8.42 18.2911 8.94C17.9711 9.54 17.6311 10.19 17.2711 10.89C16.9111 11.57 16.5911 12.14 16.3111 12.6C16.1311 12.86 15.9511 13.16 15.7711 13.5C15.5911 13.84 15.4811 14.06 15.4411 14.16C15.3611 14.38 15.2211 14.65 15.0211 14.97C14.8211 15.27 14.6011 15.57 14.3611 15.87C14.2411 16.05 14.1211 16.24 14.0011 16.44C13.8811 16.62 13.7811 16.78 13.7011 16.92C13.6411 17.04 13.6111 17.1 13.6111 17.1C13.6111 17.16 13.5111 17.34 13.3111 17.64C13.1311 17.94 12.9011 18.27 12.6211 18.63C12.3611 18.99 12.1111 19.3 11.8711 19.56C11.1711 20.3 10.6111 20.74 10.1911 20.88C9.77106 21 9.30106 20.82 8.78106 20.34C8.52106 20.02 8.33106 19.66 8.21105 19.26C8.09106 18.84 8.04106 18.33 8.06105 17.73C8.08106 17.11 8.15106 16.34 8.27105 15.42C8.41105 14.72 8.54106 14.02 8.66106 13.32C8.78105 12.6 8.89105 11.93 8.99106 11.31C9.11106 10.67 9.21106 10.13 9.29106 9.69C9.39106 9.25 9.47105 8.96 9.53105 8.82C9.57105 8.42 9.56106 8.2 9.50106 8.16C9.44106 8.12 9.32106 8.24 9.14106 8.52C9.06106 8.66 8.85106 9.01 8.51106 9.57C8.17106 10.11 7.77105 10.78 7.31105 11.58C6.87106 12.38 6.43106 13.25 5.99106 14.19C5.17106 15.71 4.49106 16.97 3.95106 17.97C3.43105 18.95 3.01105 19.73 2.69105 20.31C2.39105 20.89 2.17105 21.32 2.03105 21.6C1.89105 21.88 1.79105 22.07 1.73105 22.17C1.67105 22.27 1.62105 22.34 1.58105 22.38C1.40105 22.38 1.21105 22.3 1.01105 22.14C0.831055 22 0.641055 21.83 0.441055 21.63C0.381055 21.49 0.351055 21.35 0.351055 21.21C0.371055 21.07 0.441055 20.87 0.561055 20.61C0.681055 20.33 0.861055 19.91 1.10105 19.35C1.36105 18.83 1.60105 18.38 1.82105 18C2.04105 17.6 2.21105 17.36 2.33105 17.28C2.43105 17.12 2.52105 16.96 2.60105 16.8C2.68105 16.64 2.73105 16.45 2.75105 16.23C2.85105 16.11 3.00105 15.87 3.20105 15.51C3.42105 15.13 3.64105 14.72 3.86105 14.28C4.02105 14.02 4.22105 13.68 4.46105 13.26C4.72106 12.84 4.99106 12.38 5.27106 11.88C5.55106 11.36 5.80105 10.87 6.02105 10.41C6.94106 8.83 7.72106 7.5 8.36106 6.42C9.00106 5.32 9.48105 4.62 9.80105 4.32C9.90105 4.22 10.0011 4.08 10.1011 3.9C10.2211 3.72 10.2811 3.56 10.2811 3.42C10.2811 3 10.3611 2.62 10.5211 2.28C10.7011 1.92 10.8811 1.76 11.0611 1.8C11.2611 1.8 11.4411 1.82 11.6011 1.86C11.7611 1.9 11.9311 2.03 12.1111 2.25C12.2711 2.49 12.4111 2.73 12.5311 2.97C12.6511 3.21 12.6411 3.69 12.5011 4.41C12.5011 4.69 12.4711 5.01 12.4111 5.37C12.3511 5.71 12.2911 6.03 12.2311 6.33C12.1911 6.61 12.1611 6.83 12.1411 6.99C11.8811 7.77 11.6411 8.65 11.4211 9.63C11.2011 10.59 11.0011 11.57 10.8211 12.57C10.6411 13.55 10.4911 14.47 10.3711 15.33C10.2511 16.17 10.1711 16.87 10.1311 17.43C10.1111 17.97 10.1311 18.28 10.1911 18.36C10.3311 18.44 10.4511 18.45 10.5511 18.39C10.6511 18.33 10.8211 18.07 11.0611 17.61C11.2011 17.37 11.3911 17.08 11.6311 16.74C11.8911 16.38 12.1411 16.05 12.3811 15.75C12.5411 15.47 12.7911 15.05 13.1311 14.49C13.4711 13.93 13.9011 13.21 14.4211 12.33C14.9611 11.45 15.6011 10.38 16.3411 9.12C17.1011 7.84 17.9611 6.36 18.9211 4.68C19.3811 3.98 19.8111 3.3 20.2111 2.64C20.6311 1.96 20.9711 1.52 21.2311 1.32C21.5111 1.06 21.8011 0.999999 22.1011 1.14C22.4011 1.26 22.6611 1.52 22.8811 1.92C23.1211 2.32 23.2511 2.82 23.2711 3.42C23.2911 3.7 23.2511 4.15 23.1511 4.77C23.0711 5.39 22.9411 6.1 22.7611 6.9C22.5811 7.68 22.3511 8.49 22.0711 9.33C22.0111 9.67 21.9111 10.1 21.7711 10.62C21.6511 11.12 21.5111 11.64 21.3511 12.18C21.1911 12.72 21.0311 13.23 20.8711 13.71C20.7711 14.37 20.6511 15.02 20.5111 15.66C20.3911 16.3 20.3511 16.73 20.3911 16.95C20.2111 17.27 20.0911 17.73 20.0311 18.33C19.9711 18.93 19.9411 19.55 19.9411 20.19C19.8611 20.97 19.8011 21.52 19.7611 21.84C19.7211 22.16 19.6511 22.31 19.5511 22.29C19.2911 22.21 19.1611 22.26 19.1611 22.44ZM25.9929 20.55C25.7329 20.55 25.5229 20.5 25.3629 20.4C25.2229 20.3 25.0429 20.16 24.8229 19.98C24.4429 19.58 24.1729 19.2 24.0129 18.84C23.8529 18.46 23.8029 18.1 23.8629 17.76C23.9229 17.6 23.9429 17.45 23.9229 17.31C23.9229 17.15 23.9229 17.07 23.9229 17.07C23.8229 16.97 23.7929 16.91 23.8329 16.89C23.8729 16.85 23.9129 16.79 23.9529 16.71C24.0729 16.71 24.1129 16.6 24.0729 16.38C24.0329 16.22 24.1129 15.87 24.3129 15.33C24.5129 14.79 24.7629 14.28 25.0629 13.8C25.1829 13.6 25.3629 13.34 25.6029 13.02C25.8429 12.68 26.1029 12.35 26.3829 12.03C26.6829 11.69 26.9529 11.42 27.1929 11.22C27.6929 10.8 28.1329 10.49 28.5129 10.29C28.8929 10.09 29.3029 9.94 29.7429 9.84C30.1829 9.74 30.4829 9.69 30.6429 9.69C30.8229 9.69 31.0629 9.85 31.3629 10.17C31.8229 10.37 32.1529 10.61 32.3529 10.89C32.5729 11.17 32.7129 11.58 32.7729 12.12C32.8329 12.72 32.7829 13.41 32.6229 14.19C32.4829 14.95 32.0129 15.9 31.2129 17.04C30.7129 17.76 30.2529 18.3 29.8329 18.66C29.4129 19 28.9129 19.34 28.3329 19.68C27.9129 19.96 27.5329 20.17 27.1929 20.31C26.8529 20.43 26.4529 20.51 25.9929 20.55ZM28.8729 17.37C29.3529 16.83 29.7329 16.32 30.0129 15.84C30.3129 15.36 30.5929 14.75 30.8529 14.01C30.9329 13.79 30.9829 13.52 31.0029 13.2C31.0229 12.86 31.0129 12.55 30.9729 12.27C30.9529 11.97 30.8829 11.8 30.7629 11.76C30.5229 11.62 30.2329 11.58 29.8929 11.64C29.5529 11.68 29.1829 11.87 28.7829 12.21C28.1629 12.73 27.6229 13.38 27.1629 14.16C26.7029 14.92 26.2529 15.79 25.8129 16.77C25.5129 17.49 25.4429 18.07 25.6029 18.51C25.7829 18.93 26.1529 19.08 26.7129 18.96C27.2929 18.82 28.0129 18.29 28.8729 17.37ZM35.399 21C35.019 21.1 34.709 21.02 34.469 20.76C34.249 20.5 34.119 20.1 34.079 19.56C34.039 19.02 34.099 18.38 34.259 17.64C34.359 17.4 34.439 17.17 34.499 16.95C34.559 16.71 34.589 16.52 34.589 16.38C34.629 16.18 34.709 15.89 34.829 15.51C34.949 15.11 35.079 14.7 35.219 14.28C35.359 13.86 35.489 13.49 35.609 13.17C35.749 12.83 35.839 12.62 35.879 12.54C35.959 12.54 36.029 12.47 36.089 12.33C36.149 12.19 36.179 12.05 36.179 11.91C36.179 11.75 36.209 11.57 36.269 11.37C36.349 11.17 36.429 11.03 36.509 10.95C36.509 10.85 36.529 10.74 36.569 10.62C36.629 10.48 36.659 10.37 36.659 10.29C36.659 10.21 36.679 10.13 36.719 10.05C36.779 9.97 36.809 9.89 36.809 9.81C36.949 9.55 37.129 9.14 37.349 8.58C37.589 8 37.839 7.36 38.099 6.66C38.379 5.96 38.639 5.27 38.879 4.59C39.119 3.91 39.309 3.34 39.449 2.88C39.609 2.4 39.689 2.11 39.689 2.01C39.689 1.85 39.729 1.73 39.809 1.65C39.889 1.57 40.009 1.53 40.169 1.53C40.229 1.47 40.299 1.43 40.379 1.41C40.479 1.39 40.569 1.38 40.649 1.38C40.649 1.38 40.689 1.42 40.769 1.5C40.849 1.58 40.969 1.7 41.129 1.86C41.289 2 41.379 2.16 41.399 2.34C41.439 2.52 41.459 2.73 41.459 2.97C41.459 3.23 41.429 3.46 41.369 3.66C41.309 3.86 41.189 4.15 41.009 4.53C40.829 4.91 40.549 5.5 40.169 6.3C40.009 6.7 39.839 7.08 39.659 7.44C39.479 7.78 39.389 7.99 39.389 8.07C39.389 8.15 39.349 8.27 39.269 8.43C39.209 8.59 39.139 8.79 39.059 9.03C38.979 9.19 38.869 9.43 38.729 9.75C38.589 10.05 38.439 10.38 38.279 10.74C38.139 11.08 38.019 11.38 37.919 11.64C37.819 11.88 37.769 12.02 37.769 12.06C37.769 12.14 37.759 12.22 37.739 12.3C37.739 12.38 37.699 12.46 37.619 12.54C37.539 12.54 37.489 12.6 37.469 12.72C37.469 12.82 37.469 12.87 37.469 12.87C37.469 13.07 37.309 13.6 36.989 14.46C36.669 15.56 36.369 16.57 36.089 17.49C35.829 18.41 35.699 19.15 35.699 19.71C35.699 20.19 35.689 20.51 35.669 20.67C35.649 20.81 35.559 20.92 35.399 21ZM42.4474 21.09C41.5674 21.09 40.8474 20.76 40.2874 20.1C39.7274 19.42 39.4574 18.58 39.4774 17.58C39.5174 16.86 39.6574 16.09 39.8974 15.27C40.1574 14.43 40.4974 13.63 40.9174 12.87C41.3374 12.09 41.7974 11.41 42.2974 10.83C42.7974 10.25 43.3174 9.84 43.8574 9.6C44.0574 9.5 44.2674 9.42 44.4874 9.36C44.7274 9.3 44.9674 9.27 45.2074 9.27C45.4274 9.27 45.6574 9.31 45.8974 9.39C46.1374 9.45 46.3374 9.52 46.4974 9.6C46.8374 9.74 47.0974 9.91 47.2774 10.11C47.4574 10.31 47.6174 10.62 47.7574 11.04C47.8174 11.42 47.8474 11.69 47.8474 11.85C47.8474 12.01 47.7974 12.25 47.6974 12.57C47.4574 13.29 47.1474 13.91 46.7674 14.43C46.3874 14.95 45.8774 15.39 45.2374 15.75C45.0774 15.85 44.8874 15.93 44.6674 15.99C44.4674 16.03 44.2574 16.05 44.0374 16.05C43.6374 16.05 43.2474 15.98 42.8674 15.84C42.5074 15.68 42.2174 15.45 41.9974 15.15L41.7874 14.91L41.6974 15.15C41.4974 15.69 41.3374 16.19 41.2174 16.65C41.1174 17.11 41.0674 17.53 41.0674 17.91C41.0674 18.15 41.0874 18.38 41.1274 18.6C41.1874 18.82 41.2674 19.01 41.3674 19.17C41.4474 19.29 41.5774 19.38 41.7574 19.44C41.9574 19.48 42.1674 19.5 42.3874 19.5C42.5274 19.5 42.6674 19.5 42.8074 19.5C42.9674 19.48 43.1174 19.44 43.2574 19.38C43.5974 19.26 43.8674 19.13 44.0674 18.99C44.2874 18.85 44.5074 18.7 44.7274 18.54L44.8474 18.48H44.8174C45.0574 18.36 45.2674 18.24 45.4474 18.12C45.6474 18 45.7474 17.94 45.7474 17.94C45.8274 17.94 45.9074 17.89 45.9874 17.79C46.1474 17.71 46.3474 17.74 46.5874 17.88C46.8474 18.02 46.9774 18.2 46.9774 18.42C46.9574 18.52 46.8674 18.68 46.7074 18.9C46.5474 19.1 46.3674 19.29 46.1674 19.47C45.9874 19.65 45.8374 19.75 45.7174 19.77C45.6974 19.79 45.6274 19.83 45.5074 19.89C45.3874 19.93 45.3074 19.97 45.2674 20.01H45.2974C45.1174 20.25 44.9374 20.37 44.7574 20.37H44.5174C44.4374 20.51 44.1774 20.67 43.7374 20.85C43.2974 21.01 42.8674 21.09 42.4474 21.09ZM43.7974 14.49C44.1574 14.49 44.4674 14.39 44.7274 14.19C45.0074 13.97 45.2474 13.73 45.4474 13.47C45.8474 12.93 46.0774 12.41 46.1374 11.91C46.2174 11.39 46.1574 11.03 45.9574 10.83C45.8374 10.77 45.7274 10.74 45.6274 10.74C45.5474 10.72 45.3774 10.75 45.1174 10.83C44.9374 10.87 44.6874 11.02 44.3674 11.28C44.0474 11.54 43.7274 11.83 43.4074 12.15C43.1074 12.47 42.8774 12.74 42.7174 12.96L42.3274 13.59C42.4874 13.53 42.6374 13.5 42.7774 13.5C42.9374 13.48 43.0274 13.49 43.0474 13.53C43.0474 13.71 43.0774 13.88 43.1374 14.04C43.2174 14.18 43.3074 14.29 43.4074 14.37C43.5274 14.45 43.6574 14.49 43.7974 14.49ZM51.1532 20.07C51.0932 20.09 50.9932 20.08 50.8532 20.04C50.7132 20 50.5732 19.95 50.4332 19.89C50.2932 19.83 50.2032 19.78 50.1632 19.74C50.0832 19.66 50.0032 19.54 49.9232 19.38C49.8632 19.22 49.8632 18.99 49.9232 18.69C49.9832 18.37 50.1832 17.96 50.5232 17.46C50.6232 17.26 50.7432 16.96 50.8832 16.56C51.0232 16.16 51.1632 15.74 51.3032 15.3C51.4632 14.84 51.6032 14.43 51.7232 14.07C51.8632 13.71 51.9632 13.46 52.0232 13.32C52.0632 12.98 52.0432 12.74 51.9632 12.6C51.9032 12.44 51.7332 12.35 51.4532 12.33C51.2532 12.33 51.0932 12.31 50.9732 12.27C50.8732 12.23 50.8232 12.03 50.8232 11.67C50.8632 11.39 50.9332 11.2 51.0332 11.1C51.1532 10.98 51.3132 10.85 51.5132 10.71C51.7132 10.61 51.9132 10.54 52.1132 10.5C52.3332 10.46 52.5432 10.45 52.7432 10.47C52.9432 10.49 53.1032 10.56 53.2232 10.68C53.3632 10.76 53.4532 10.94 53.4932 11.22C53.5332 11.48 53.5532 11.75 53.5532 12.03C53.5732 12.31 53.5932 12.52 53.6132 12.66C53.8132 12.5 54.0832 12.28 54.4232 12C54.7832 11.7 55.0932 11.42 55.3532 11.16C55.6732 10.94 56.0532 10.72 56.4932 10.5C56.9332 10.26 57.2532 10.14 57.4532 10.14C57.6732 10.14 57.8932 10.2 58.1132 10.32C58.3332 10.42 58.4832 10.55 58.5632 10.71C58.7632 11.05 58.8532 11.35 58.8332 11.61C58.8332 11.87 58.7232 12.14 58.5032 12.42C58.3032 12.68 58.0532 12.86 57.7532 12.96C57.4732 13.06 57.2932 13.11 57.2132 13.11C57.0932 13.11 56.9432 13.02 56.7632 12.84C56.5832 12.66 56.4832 12.51 56.4632 12.39C56.4632 12.33 56.3332 12.39 56.0732 12.57C55.8332 12.73 55.5632 12.94 55.2632 13.2C54.9632 13.44 54.7132 13.66 54.5132 13.86C54.1732 14.28 53.8132 14.85 53.4332 15.57C53.0532 16.29 52.6032 17.16 52.0832 18.18C51.8432 18.68 51.6732 19.11 51.5732 19.47C51.4732 19.81 51.3332 20.01 51.1532 20.07ZM62.8938 20.58C61.8938 20.58 61.1638 20.22 60.7038 19.5C60.5638 19.3 60.4938 19.1 60.4938 18.9C60.5138 18.68 60.5738 18.53 60.6738 18.45C60.7938 18.37 60.9338 18.44 61.0938 18.66C61.3738 18.82 61.7738 18.9 62.2938 18.9C62.5538 18.9 62.8238 18.88 63.1038 18.84C63.3838 18.78 63.6638 18.7 63.9438 18.6C64.2438 18.46 64.4438 18.34 64.5438 18.24C64.6438 18.12 64.6238 18.02 64.4838 17.94H64.5138C63.9938 17.8 63.4638 17.58 62.9238 17.28C62.4038 16.96 61.9538 16.62 61.5738 16.26C61.1938 15.88 60.9738 15.54 60.9138 15.24C60.7538 14.62 60.7938 13.99 61.0338 13.35C61.2738 12.69 61.6138 12.11 62.0538 11.61C62.2138 11.51 62.4138 11.39 62.6538 11.25C62.8938 11.09 63.0838 11 63.2238 10.98V11.01C63.6038 10.61 64.0638 10.29 64.6038 10.05C65.1638 9.81 65.7538 9.59 66.3738 9.39L66.8238 9.33C67.0638 9.29 67.2638 9.27 67.4238 9.27C67.4038 9.27 67.4438 9.29 67.5438 9.33C67.6438 9.35 67.7338 9.37 67.8138 9.39C67.9338 9.45 68.0338 9.48 68.1138 9.48C68.3738 9.52 68.6138 9.64 68.8338 9.84C69.0538 10.04 69.2238 10.28 69.3438 10.56C69.4838 10.82 69.5338 11.07 69.4938 11.31C69.4538 11.69 69.3338 12.03 69.1338 12.33C68.9538 12.63 68.7338 12.8 68.4738 12.84C68.5138 12.82 68.4838 12.79 68.3838 12.75C68.3038 12.69 68.2138 12.63 68.1138 12.57L68.0238 12.63C68.0238 12.63 68.0138 12.61 67.9938 12.57C67.9938 12.51 67.9738 12.44 67.9338 12.36C67.8738 12.24 67.8438 12.11 67.8438 11.97C67.8438 11.81 67.8538 11.64 67.8738 11.46C67.9138 11.24 67.9138 11.11 67.8738 11.07C67.8538 11.03 67.7238 11 67.4838 10.98C67.2038 10.92 66.7938 10.97 66.2538 11.13C65.7338 11.29 65.2938 11.51 64.9338 11.79C64.4938 12.07 64.1238 12.34 63.8238 12.6C63.5238 12.84 63.2838 13.08 63.1038 13.32C62.9238 13.54 62.7638 13.8 62.6238 14.1C62.5238 14.24 62.4338 14.38 62.3538 14.52C62.2938 14.64 62.2638 14.75 62.2638 14.85C62.2638 15.07 62.4238 15.3 62.7438 15.54C63.0838 15.76 63.5838 16.02 64.2438 16.32C64.7638 16.54 65.2038 16.78 65.5638 17.04C65.9238 17.3 66.1738 17.6 66.3138 17.94C66.3538 18.02 66.3638 18.12 66.3438 18.24C66.3438 18.34 66.3238 18.41 66.2838 18.45C66.3238 18.49 66.3438 18.52 66.3438 18.54V18.51C66.5038 18.75 66.5038 19 66.3438 19.26C66.2038 19.52 65.9538 19.75 65.5938 19.95C65.2538 20.13 64.8338 20.27 64.3338 20.37H64.3638C64.1038 20.45 63.8438 20.51 63.5838 20.55C63.3438 20.57 63.1138 20.58 62.8938 20.58ZM70.7184 20.85C70.5584 20.79 70.3884 20.67 70.2084 20.49C70.0284 20.29 69.8784 20.06 69.7584 19.8C69.6384 19.54 69.5784 19.3 69.5784 19.08C69.6784 18.86 69.8084 18.48 69.9684 17.94C70.1284 17.38 70.3284 16.74 70.5684 16.02C70.7284 15.8 70.8484 15.54 70.9284 15.24C71.0284 14.94 71.1184 14.67 71.1984 14.43C71.3584 14.11 71.5484 13.7 71.7684 13.2C71.9884 12.68 72.1984 12.16 72.3984 11.64C72.6184 11.1 72.8084 10.65 72.9684 10.29C73.2284 9.75 73.4484 9.26 73.6284 8.82C73.8284 8.36 74.0184 7.9 74.1984 7.44C74.3984 6.98 74.6084 6.48 74.8284 5.94C75.0684 5.38 75.3084 4.81 75.5484 4.23C75.8084 3.65 76.0284 3.13 76.2084 2.67C76.4084 2.19 76.5284 1.85 76.5684 1.65C76.5684 1.49 76.5984 1.37 76.6584 1.29C76.7384 1.21 76.8184 1.17 76.8984 1.17C76.9784 1.09 77.0584 1.05 77.1384 1.05C77.2184 1.03 77.2984 1.02 77.3784 1.02C77.4584 1.02 77.6084 1.17 77.8284 1.47C78.0684 1.77 78.1884 2.04 78.1884 2.28C78.1884 2.6 78.0284 3.2 77.7084 4.08C77.4084 4.96 76.9784 5.96 76.4184 7.08C75.7384 8.56 75.1884 9.78 74.7684 10.74C74.3484 11.68 74.0584 12.39 73.8984 12.87C73.7384 13.33 73.6784 13.59 73.7184 13.65C73.7184 13.65 73.8584 13.59 74.1384 13.47C74.4184 13.33 74.7184 13.14 75.0384 12.9C75.2584 12.78 75.4984 12.63 75.7584 12.45C76.0184 12.27 76.2684 12.1 76.5084 11.94C76.7484 11.76 76.9484 11.65 77.1084 11.61C77.3484 11.45 77.5984 11.3 77.8584 11.16C78.1184 11 78.2884 10.88 78.3684 10.8C78.7084 10.64 78.9584 10.59 79.1184 10.65C79.2984 10.71 79.4784 10.86 79.6584 11.1C79.8784 11.36 79.9184 11.59 79.7784 11.79C79.6384 11.97 79.3084 12.22 78.7884 12.54C78.3684 12.8 77.8584 13.11 77.2584 13.47C76.6784 13.83 76.1584 14.15 75.6984 14.43C75.2584 14.71 75.0084 14.88 74.9484 14.94C74.9484 14.94 75.0284 15.09 75.1884 15.39C75.3484 15.69 75.5084 15.96 75.6684 16.2C75.8284 16.52 75.9984 16.82 76.1784 17.1C76.3784 17.36 76.4784 17.54 76.4784 17.64C76.6984 18.26 77.0284 18.71 77.4684 18.99C77.9084 19.27 78.3684 19.3 78.8484 19.08C79.2484 18.92 79.5384 18.87 79.7184 18.93C79.9184 18.99 80.0584 19.14 80.1384 19.38C80.2184 19.54 80.2384 19.66 80.1984 19.74C80.1784 19.8 80.0484 19.95 79.8084 20.19C79.4284 20.57 79.0384 20.81 78.6384 20.91C78.2584 21.01 77.9084 20.98 77.5884 20.82C77.2884 20.84 76.9184 20.65 76.4784 20.25C76.0384 19.83 75.4084 19.09 74.5884 18.03C74.5884 17.95 74.5484 17.84 74.4684 17.7C74.4084 17.54 74.3384 17.39 74.2584 17.25C74.1784 17.09 74.0784 16.92 73.9584 16.74C73.8384 16.54 73.7784 16.44 73.7784 16.44C73.7784 16.36 73.7484 16.27 73.6884 16.17C73.6284 16.07 73.5484 15.95 73.4484 15.81C73.1284 15.71 72.8984 15.77 72.7584 15.99C72.6184 16.21 72.4684 16.44 72.3084 16.68C72.2084 16.94 72.0784 17.31 71.9184 17.79C71.7784 18.25 71.6584 18.7 71.5584 19.14C71.4784 19.58 71.4584 19.88 71.4984 20.04C71.4984 20.36 71.4484 20.58 71.3484 20.7C71.2484 20.8 71.0384 20.85 70.7184 20.85ZM81.8854 19.53C81.8054 19.53 81.7054 19.51 81.5854 19.47C81.4854 19.41 81.4354 19.38 81.4354 19.38C81.4354 19.3 81.4054 19.2 81.3454 19.08C81.3054 18.96 81.2854 18.86 81.2854 18.78C81.1454 18.7 81.0654 18.62 81.0454 18.54C81.0254 18.44 81.0554 18.28 81.1354 18.06C81.2554 17.86 81.4154 17.54 81.6154 17.1C81.8154 16.64 82.0254 16.15 82.2454 15.63C82.4654 15.09 82.6754 14.56 82.8754 14.04C83.0754 13.52 83.2454 13.08 83.3854 12.72C83.5254 12.34 83.6054 12.11 83.6254 12.03C83.6254 11.95 83.6554 11.85 83.7154 11.73C83.7754 11.61 83.8454 11.51 83.9254 11.43C84.0854 11.29 84.2554 11.28 84.4354 11.4C84.6154 11.5 84.7654 11.68 84.8854 11.94C85.0254 12.18 85.0954 12.45 85.0954 12.75C85.0954 12.89 84.9954 13.25 84.7954 13.83C84.5954 14.39 84.3254 15.06 83.9854 15.84C83.6654 16.62 83.3054 17.41 82.9054 18.21C82.6054 18.79 82.4154 19.16 82.3354 19.32C82.2554 19.46 82.1054 19.53 81.8854 19.53ZM86.2954 8.16C86.0554 8.16 85.7954 8.07 85.5154 7.89C85.2554 7.69 85.0254 7.45 84.8254 7.17C84.6454 6.87 84.5554 6.57 84.5554 6.27C84.5554 6.17 84.6154 6.03 84.7354 5.85C84.8554 5.67 84.9754 5.49 85.0954 5.31C85.2154 5.13 85.2754 5.02 85.2754 4.98C85.4354 4.98 85.5554 4.99 85.6354 5.01C85.7354 5.01 85.8554 5.05 85.9954 5.13C86.2154 5.63 86.4854 6.04 86.8054 6.36C87.1454 6.68 87.3154 6.95 87.3154 7.17C87.3154 7.61 87.2754 7.89 87.1954 8.01C87.1154 8.11 86.8154 8.16 86.2954 8.16ZM96.0068 20.07C95.9468 20.09 95.8468 20.08 95.7068 20.04C95.5668 20 95.4268 19.95 95.2868 19.89C95.1468 19.83 95.0568 19.78 95.0168 19.74C94.9368 19.66 94.8568 19.54 94.7768 19.38C94.7168 19.22 94.7168 18.99 94.7768 18.69C94.8368 18.37 95.0368 17.96 95.3768 17.46C95.4768 17.26 95.5968 16.96 95.7368 16.56C95.8768 16.16 96.0168 15.74 96.1568 15.3C96.3168 14.84 96.4568 14.43 96.5768 14.07C96.7168 13.71 96.8168 13.46 96.8768 13.32C96.9168 12.98 96.8968 12.74 96.8168 12.6C96.7568 12.44 96.5868 12.35 96.3068 12.33C96.1068 12.33 95.9468 12.31 95.8268 12.27C95.7268 12.23 95.6768 12.03 95.6768 11.67C95.7168 11.39 95.7868 11.2 95.8868 11.1C96.0068 10.98 96.1668 10.85 96.3668 10.71C96.5668 10.61 96.7668 10.54 96.9668 10.5C97.1868 10.46 97.3968 10.45 97.5968 10.47C97.7968 10.49 97.9568 10.56 98.0768 10.68C98.2168 10.76 98.3068 10.94 98.3468 11.22C98.3868 11.48 98.4068 11.75 98.4068 12.03C98.4268 12.31 98.4468 12.52 98.4668 12.66C98.6668 12.5 98.9368 12.28 99.2768 12C99.6368 11.7 99.9468 11.42 100.207 11.16C100.527 10.94 100.907 10.72 101.347 10.5C101.787 10.26 102.107 10.14 102.307 10.14C102.527 10.14 102.747 10.2 102.967 10.32C103.187 10.42 103.337 10.55 103.417 10.71C103.617 11.05 103.707 11.35 103.687 11.61C103.687 11.87 103.577 12.14 103.357 12.42C103.157 12.68 102.907 12.86 102.607 12.96C102.327 13.06 102.147 13.11 102.067 13.11C101.947 13.11 101.797 13.02 101.617 12.84C101.437 12.66 101.337 12.51 101.317 12.39C101.317 12.33 101.187 12.39 100.927 12.57C100.687 12.73 100.417 12.94 100.117 13.2C99.8168 13.44 99.5668 13.66 99.3668 13.86C99.0268 14.28 98.6668 14.85 98.2868 15.57C97.9068 16.29 97.4568 17.16 96.9368 18.18C96.6968 18.68 96.5268 19.11 96.4268 19.47C96.3268 19.81 96.1868 20.01 96.0068 20.07ZM105.197 19.92C105.117 19.76 105.017 19.64 104.897 19.56C104.777 19.46 104.717 19.37 104.717 19.29C104.717 19.21 104.707 19.13 104.687 19.05C104.687 18.95 104.647 18.86 104.567 18.78C104.467 18.66 104.477 18.39 104.597 17.97C104.717 17.53 104.917 17 105.197 16.38C105.477 15.74 105.807 15.07 106.187 14.37C106.347 14.21 106.507 14 106.667 13.74C106.827 13.48 106.947 13.31 107.027 13.23C107.027 13.15 107.057 13.08 107.117 13.02C107.177 12.94 107.247 12.9 107.327 12.9V12.72C107.327 12.62 107.417 12.45 107.597 12.21C107.797 11.97 108.037 11.71 108.317 11.43C108.597 11.13 108.887 10.85 109.187 10.59C109.487 10.31 109.737 10.11 109.937 9.99C110.357 9.71 110.787 9.54 111.227 9.48C111.687 9.42 112.077 9.52 112.397 9.78C112.457 9.84 112.557 9.94 112.697 10.08C112.837 10.22 112.997 10.38 113.177 10.56C113.377 10.72 113.577 10.89 113.777 11.07L114.887 12.06L114.347 13.56C114.087 14.36 114.017 15.06 114.137 15.66C114.277 16.26 114.477 16.78 114.737 17.22C114.837 17.44 115.037 17.65 115.337 17.85C115.657 18.05 115.957 18.17 116.237 18.21C116.397 18.23 116.547 18.29 116.687 18.39C116.827 18.49 116.897 18.65 116.897 18.87C116.897 19.07 116.857 19.23 116.777 19.35C116.697 19.47 116.557 19.55 116.357 19.59C115.697 19.67 115.077 19.51 114.497 19.11C113.937 18.71 113.417 18.05 112.937 17.13C112.857 17.01 112.747 16.79 112.607 16.47C112.487 16.13 112.417 15.91 112.397 15.81C112.317 15.91 112.167 16.1 111.947 16.38C111.727 16.64 111.557 16.83 111.437 16.95C110.017 18.39 108.787 19.36 107.747 19.86C106.727 20.34 105.877 20.36 105.197 19.92ZM106.277 18.24C106.277 18.38 106.487 18.38 106.907 18.24C107.347 18.08 107.817 17.8 108.317 17.4C108.997 16.82 109.677 16.18 110.357 15.48C111.057 14.78 111.617 14.13 112.037 13.53L112.697 12.45C112.497 11.99 112.277 11.68 112.037 11.52C111.817 11.34 111.627 11.25 111.467 11.25C111.207 11.25 110.817 11.49 110.297 11.97C109.797 12.45 109.257 13.09 108.677 13.89C108.097 14.69 107.547 15.57 107.027 16.53C106.827 16.93 106.647 17.32 106.487 17.7C106.347 18.06 106.277 18.24 106.277 18.24ZM124.773 20.91C124.553 20.99 124.393 21.02 124.293 21C124.213 20.96 124.003 20.81 123.663 20.55C123.523 20.31 123.433 20.1 123.393 19.92C123.373 19.72 123.363 19.37 123.363 18.87C123.403 18.57 123.483 18.14 123.603 17.58C123.743 17.02 123.903 16.43 124.083 15.81C124.263 15.19 124.423 14.63 124.563 14.13C124.723 13.63 124.843 13.29 124.923 13.11C125.063 12.63 125.093 12.34 125.013 12.24C124.933 12.12 124.693 12.04 124.293 12C123.493 11.9 122.773 12.16 122.133 12.78C121.493 13.4 120.853 14.21 120.213 15.21C119.733 15.95 119.443 16.59 119.343 17.13C119.263 17.65 119.253 18.01 119.313 18.21C119.373 18.37 119.513 18.46 119.733 18.48C119.953 18.48 120.193 18.43 120.453 18.33C120.733 18.23 120.973 18.13 121.173 18.03C121.313 17.95 121.483 17.87 121.683 17.79C121.903 17.69 122.113 17.6 122.313 17.52C122.433 17.52 122.513 17.56 122.553 17.64C122.613 17.7 122.643 17.83 122.643 18.03C122.643 18.11 122.673 18.18 122.733 18.24C122.793 18.3 122.863 18.35 122.943 18.39C123.023 18.47 122.903 18.65 122.583 18.93C122.283 19.21 121.813 19.53 121.173 19.89C120.573 20.03 120.083 20.1 119.703 20.1C119.343 20.1 118.993 19.97 118.653 19.71C118.093 19.37 117.773 18.82 117.693 18.06C117.633 17.28 117.793 16.33 118.173 15.21C118.553 14.31 118.973 13.58 119.433 13.02C119.893 12.44 120.383 11.88 120.903 11.34C120.983 11.26 121.163 11.14 121.443 10.98C121.743 10.8 122.113 10.64 122.553 10.5C123.053 10.34 123.523 10.24 123.963 10.2C124.403 10.16 124.783 10.25 125.103 10.47C125.463 10.55 125.693 10.54 125.793 10.44C125.893 10.32 126.063 9.96 126.303 9.36C126.703 8.36 127.093 7.35 127.473 6.33C127.853 5.29 128.263 4.24 128.703 3.18C128.903 2.8 129.023 2.51 129.063 2.31C129.123 2.09 129.193 1.94 129.273 1.86H129.843C129.923 1.86 130.063 1.93 130.263 2.07C130.463 2.21 130.603 2.4 130.683 2.64C130.683 2.82 130.603 3.22 130.443 3.84C130.283 4.44 130.023 5.16 129.663 6C129.343 6.74 129.023 7.49 128.703 8.25C128.403 8.99 128.113 9.78 127.833 10.62C127.613 11.24 127.413 11.74 127.233 12.12C127.053 12.5 126.933 12.83 126.873 13.11C126.753 13.63 126.603 14.1 126.423 14.52C126.263 14.92 126.153 15.2 126.093 15.36C125.833 16.12 125.623 16.74 125.463 17.22C125.303 17.68 125.183 18.07 125.103 18.39C125.023 18.69 124.973 19 124.953 19.32C124.953 19.62 124.983 19.98 125.043 20.4C125.043 20.48 125.033 20.56 125.013 20.64C124.993 20.72 124.913 20.81 124.773 20.91ZM133.01 19.86C132.59 19.94 132.32 19.97 132.2 19.95C132.1 19.91 131.94 19.79 131.72 19.59C131.4 19.43 131.13 19.23 130.91 18.99C130.71 18.75 130.56 18.5 130.46 18.24C130.38 17.96 130.35 17.73 130.37 17.55C130.43 16.85 130.6 16.1 130.88 15.3C131.16 14.5 131.5 13.73 131.9 12.99C132.3 12.25 132.73 11.62 133.19 11.1C133.67 10.56 134.13 10.21 134.57 10.05C134.97 9.89 135.35 9.83 135.71 9.87C136.07 9.91 136.33 10.1 136.49 10.44C136.79 11.02 136.72 11.39 136.28 11.55C136.22 11.55 136.15 11.58 136.07 11.64C135.99 11.68 135.95 11.74 135.95 11.82C136.03 11.86 136.25 11.87 136.61 11.85C136.97 11.81 137.33 11.75 137.69 11.67C138.07 11.57 138.32 11.47 138.44 11.37C138.56 11.31 138.65 11.28 138.71 11.28C138.77 11.28 138.92 11.3 139.16 11.34C139.5 11.44 139.67 11.56 139.67 11.7C139.67 11.78 139.7 11.86 139.76 11.94C139.82 12 139.89 12.03 139.97 12.03C140.11 12.05 140.09 12.14 139.91 12.3C139.75 12.46 139.47 12.68 139.07 12.96C138.69 13.2 138.45 13.36 138.35 13.44C138.27 13.5 138.26 13.64 138.32 13.86C138.48 14.24 138.49 14.68 138.35 15.18C138.21 15.68 137.96 16.19 137.6 16.71C137.24 17.23 136.8 17.72 136.28 18.18C135.78 18.62 135.24 19 134.66 19.32C134.1 19.62 133.55 19.8 133.01 19.86ZM132.5 18.54C132.58 18.54 132.72 18.5 132.92 18.42C133.12 18.32 133.28 18.24 133.4 18.18C133.48 18.1 133.58 18.01 133.7 17.91C133.84 17.79 133.95 17.72 134.03 17.7C134.11 17.7 134.21 17.67 134.33 17.61C134.45 17.53 134.62 17.38 134.84 17.16C135.06 16.92 135.35 16.57 135.71 16.11C136.11 15.67 136.42 15.27 136.64 14.91C136.86 14.53 136.92 14.18 136.82 13.86C136.8 13.78 136.74 13.73 136.64 13.71C136.56 13.69 136.45 13.64 136.31 13.56C136.11 13.56 135.92 13.51 135.74 13.41C135.58 13.29 135.39 13.14 135.17 12.96L134.69 12.36L134.18 12.87C133.86 13.19 133.52 13.67 133.16 14.31C132.82 14.93 132.53 15.57 132.29 16.23C132.05 16.87 131.91 17.38 131.87 17.76C131.85 18.06 131.9 18.26 132.02 18.36C132.14 18.46 132.3 18.52 132.5 18.54ZM142.927 19.17C142.787 19.05 142.607 18.69 142.387 18.09C142.187 17.49 141.987 16.79 141.787 15.99C141.607 15.17 141.457 14.42 141.337 13.74C141.257 13.34 141.167 13 141.067 12.72C140.987 12.44 140.917 12.21 140.857 12.03C140.757 11.67 140.727 11.37 140.767 11.13C140.807 10.89 140.947 10.7 141.187 10.56C141.287 10.5 141.407 10.46 141.547 10.44C141.707 10.4 141.827 10.39 141.907 10.41C142.147 10.49 142.367 10.86 142.567 11.52C142.767 12.16 142.947 13.01 143.107 14.07C143.187 14.69 143.287 15.22 143.407 15.66C143.527 16.1 143.587 16.36 143.587 16.44C143.667 16.6 143.757 16.76 143.857 16.92C143.977 17.06 144.117 17.05 144.277 16.89C144.357 16.81 144.517 16.63 144.757 16.35C145.017 16.07 145.267 15.77 145.507 15.45C145.927 14.89 146.257 14.43 146.497 14.07C146.757 13.71 147.047 13.33 147.367 12.93C147.507 12.73 147.667 12.51 147.847 12.27C148.027 12.03 148.207 11.81 148.387 11.61C148.587 11.39 148.767 11.26 148.927 11.22C149.407 11.14 149.667 11.24 149.707 11.52C149.747 11.8 149.567 12.22 149.167 12.78C149.007 13.02 148.877 13.25 148.777 13.47C148.697 13.67 148.617 13.81 148.537 13.89C148.377 14.21 148.127 14.62 147.787 15.12C147.447 15.6 147.117 16.05 146.797 16.47C146.477 16.87 146.257 17.13 146.137 17.25C146.057 17.33 145.877 17.48 145.597 17.7C145.337 17.92 145.087 18.2 144.847 18.54C144.367 19 143.987 19.28 143.707 19.38C143.427 19.48 143.167 19.41 142.927 19.17ZM150.938 19.53C150.858 19.53 150.758 19.51 150.638 19.47C150.538 19.41 150.488 19.38 150.488 19.38C150.488 19.3 150.458 19.2 150.398 19.08C150.358 18.96 150.338 18.86 150.338 18.78C150.198 18.7 150.118 18.62 150.098 18.54C150.078 18.44 150.108 18.28 150.188 18.06C150.308 17.86 150.468 17.54 150.668 17.1C150.868 16.64 151.078 16.15 151.298 15.63C151.518 15.09 151.728 14.56 151.928 14.04C152.128 13.52 152.298 13.08 152.438 12.72C152.578 12.34 152.658 12.11 152.678 12.03C152.678 11.95 152.708 11.85 152.768 11.73C152.828 11.61 152.898 11.51 152.978 11.43C153.138 11.29 153.308 11.28 153.488 11.4C153.668 11.5 153.818 11.68 153.938 11.94C154.078 12.18 154.148 12.45 154.148 12.75C154.148 12.89 154.048 13.25 153.848 13.83C153.648 14.39 153.378 15.06 153.038 15.84C152.718 16.62 152.358 17.41 151.958 18.21C151.658 18.79 151.468 19.16 151.388 19.32C151.308 19.46 151.158 19.53 150.938 19.53ZM155.348 8.16C155.108 8.16 154.848 8.07 154.568 7.89C154.308 7.69 154.078 7.45 153.878 7.17C153.698 6.87 153.608 6.57 153.608 6.27C153.608 6.17 153.668 6.03 153.788 5.85C153.908 5.67 154.028 5.49 154.148 5.31C154.268 5.13 154.328 5.02 154.328 4.98C154.488 4.98 154.608 4.99 154.688 5.01C154.788 5.01 154.908 5.05 155.048 5.13C155.268 5.63 155.538 6.04 155.858 6.36C156.198 6.68 156.368 6.95 156.368 7.17C156.368 7.61 156.328 7.89 156.248 8.01C156.168 8.11 155.868 8.16 155.348 8.16ZM163.109 22.11C162.849 21.95 162.709 21.79 162.689 21.63C162.669 21.49 162.719 21.21 162.839 20.79C162.819 20.53 162.829 20.29 162.869 20.07C162.929 19.85 162.969 19.7 162.989 19.62C163.089 19.62 163.149 19.56 163.169 19.44C163.189 19.32 163.199 19.22 163.199 19.14C163.199 18.98 163.259 18.71 163.379 18.33C163.519 17.95 163.639 17.56 163.739 17.16C163.899 16.76 164.049 16.39 164.189 16.05C164.349 15.69 164.429 15.47 164.429 15.39C164.429 15.23 164.469 15.07 164.549 14.91C164.629 14.73 164.719 14.56 164.819 14.4C164.919 14.16 164.989 13.9 165.029 13.62C165.089 13.32 165.119 13.09 165.119 12.93C165.239 12.67 165.369 12.39 165.509 12.09C165.649 11.79 165.759 11.48 165.839 11.16C165.959 10.82 166.129 10.33 166.349 9.69C166.589 9.03 166.839 8.36 167.099 7.68C167.279 7.3 167.459 6.9 167.639 6.48C167.819 6.06 167.979 5.7 168.119 5.4C168.259 5.1 168.359 4.95 168.419 4.95C168.419 4.95 168.419 4.92 168.419 4.86C168.419 4.78 168.419 4.7 168.419 4.62C168.419 4.52 168.499 4.33 168.659 4.05C168.819 3.75 168.969 3.44 169.109 3.12C169.309 2.82 169.449 2.54 169.529 2.28C169.609 2 169.649 1.86 169.649 1.86C169.649 1.86 169.679 1.8 169.739 1.68C169.819 1.56 169.899 1.46 169.979 1.38C170.239 1.2 170.479 1.13 170.699 1.17C170.939 1.21 171.139 1.4 171.299 1.74C171.459 2.06 171.529 2.33 171.509 2.55C171.489 2.75 171.399 2.97 171.239 3.21C171.079 3.57 170.869 4.03 170.609 4.59C170.349 5.13 170.069 5.72 169.769 6.36C169.489 6.98 169.219 7.58 168.959 8.16C168.719 8.72 168.519 9.21 168.359 9.63C168.219 10.03 168.149 10.28 168.149 10.38L166.919 13.41C166.919 13.45 166.879 13.55 166.799 13.71C166.739 13.87 166.649 14.11 166.529 14.43C166.429 14.75 166.299 15.17 166.139 15.69C165.979 16.21 165.789 16.84 165.569 17.58C165.169 18.86 164.859 19.86 164.639 20.58C164.419 21.28 164.239 21.76 164.099 22.02C163.979 22.3 163.849 22.44 163.709 22.44C163.629 22.44 163.539 22.4 163.439 22.32C163.359 22.26 163.249 22.19 163.109 22.11ZM173.699 22.35C173.519 22.37 173.269 22.28 172.949 22.08C172.649 21.9 172.319 21.67 171.959 21.39C171.619 21.11 171.289 20.82 170.969 20.52C170.669 20.22 170.429 19.96 170.249 19.74C169.929 19.28 169.529 18.68 169.049 17.94C168.569 17.18 168.209 16.37 167.969 15.51C167.829 14.87 167.689 14.37 167.549 14.01C167.409 13.63 167.319 13.32 167.279 13.08L167.309 10.98L168.839 11.46C168.939 12.54 169.089 13.44 169.289 14.16C169.509 14.86 169.769 15.48 170.069 16.02C170.309 16.54 170.579 17.06 170.879 17.58C171.179 18.08 171.499 18.5 171.839 18.84C172.299 19.34 172.709 19.71 173.069 19.95C173.429 20.19 173.699 20.31 173.879 20.31C173.979 20.33 174.119 20.4 174.299 20.52C174.499 20.64 174.679 20.77 174.839 20.91C175.019 21.03 175.119 21.15 175.139 21.27C175.159 21.33 175.169 21.42 175.169 21.54C175.169 21.68 175.149 21.8 175.109 21.9C175.089 22.02 175.059 22.11 175.019 22.17C174.959 22.31 174.849 22.43 174.689 22.53C174.549 22.65 174.219 22.59 173.699 22.35ZM166.979 11.22L169.169 9.63C169.229 9.57 169.439 9.37 169.799 9.03C170.179 8.69 170.799 8.2 171.659 7.56L175.349 4.56C175.849 4.3 176.359 3.97 176.879 3.57C177.419 3.17 177.829 2.88 178.109 2.7C178.449 2.46 178.749 2.25 179.009 2.07C179.269 1.89 179.439 1.81 179.519 1.83C179.679 1.75 179.839 1.78 179.999 1.92C180.179 2.04 180.319 2.21 180.419 2.43C180.539 2.63 180.589 2.81 180.569 2.97C180.609 3.17 180.569 3.34 180.449 3.48C180.329 3.62 180.039 3.82 179.579 4.08C179.199 4.26 178.859 4.44 178.559 4.62C178.279 4.8 178.109 4.95 178.049 5.07C178.049 5.07 177.859 5.22 177.479 5.52C177.119 5.8 176.649 6.14 176.069 6.54C175.269 7.06 174.579 7.55 173.999 8.01C173.439 8.47 173.079 8.82 172.919 9.06C172.839 9.06 172.759 9.09 172.679 9.15C172.619 9.21 172.549 9.23 172.469 9.21C172.469 9.21 172.389 9.26 172.229 9.36C172.089 9.46 171.979 9.56 171.899 9.66C171.859 9.76 171.769 9.9 171.629 10.08C171.509 10.26 171.349 10.34 171.149 10.32C171.009 10.4 170.759 10.57 170.399 10.83C170.039 11.07 169.659 11.34 169.259 11.64C168.879 11.94 168.549 12.21 168.269 12.45C167.989 12.69 167.839 12.83 167.819 12.87L166.979 11.22ZM178.747 20.55C178.487 20.55 178.277 20.5 178.117 20.4C177.977 20.3 177.797 20.16 177.577 19.98C177.197 19.58 176.927 19.2 176.767 18.84C176.607 18.46 176.557 18.1 176.617 17.76C176.677 17.6 176.697 17.45 176.677 17.31C176.677 17.15 176.677 17.07 176.677 17.07C176.577 16.97 176.547 16.91 176.587 16.89C176.627 16.85 176.667 16.79 176.707 16.71C176.827 16.71 176.867 16.6 176.827 16.38C176.787 16.22 176.867 15.87 177.067 15.33C177.267 14.79 177.517 14.28 177.817 13.8C177.937 13.6 178.117 13.34 178.357 13.02C178.597 12.68 178.857 12.35 179.137 12.03C179.437 11.69 179.707 11.42 179.947 11.22C180.447 10.8 180.887 10.49 181.267 10.29C181.647 10.09 182.057 9.94 182.497 9.84C182.937 9.74 183.237 9.69 183.397 9.69C183.577 9.69 183.817 9.85 184.117 10.17C184.577 10.37 184.907 10.61 185.107 10.89C185.327 11.17 185.467 11.58 185.527 12.12C185.587 12.72 185.537 13.41 185.377 14.19C185.237 14.95 184.767 15.9 183.967 17.04C183.467 17.76 183.007 18.3 182.587 18.66C182.167 19 181.667 19.34 181.087 19.68C180.667 19.96 180.287 20.17 179.947 20.31C179.607 20.43 179.207 20.51 178.747 20.55ZM181.627 17.37C182.107 16.83 182.487 16.32 182.767 15.84C183.067 15.36 183.347 14.75 183.607 14.01C183.687 13.79 183.737 13.52 183.757 13.2C183.777 12.86 183.767 12.55 183.727 12.27C183.707 11.97 183.637 11.8 183.517 11.76C183.277 11.62 182.987 11.58 182.647 11.64C182.307 11.68 181.937 11.87 181.537 12.21C180.917 12.73 180.377 13.38 179.917 14.16C179.457 14.92 179.007 15.79 178.567 16.77C178.267 17.49 178.197 18.07 178.357 18.51C178.537 18.93 178.907 19.08 179.467 18.96C180.047 18.82 180.767 18.29 181.627 17.37ZM190.103 20.73C189.603 20.77 189.123 20.74 188.663 20.64C188.223 20.54 187.843 20.37 187.523 20.13C187.223 19.87 187.013 19.56 186.893 19.2C186.753 18.92 186.683 18.73 186.683 18.63C186.683 18.51 186.753 18.41 186.893 18.33C187.053 18.33 187.193 18.38 187.313 18.48C187.453 18.56 187.633 18.65 187.853 18.75C188.153 19.01 188.513 19.15 188.933 19.17C189.373 19.19 189.773 19.12 190.133 18.96C190.493 18.8 190.693 18.6 190.733 18.36C190.733 18.28 190.703 18.14 190.643 17.94C190.583 17.74 190.513 17.53 190.433 17.31C189.893 16.55 189.493 15.8 189.233 15.06C188.993 14.3 188.873 13.68 188.873 13.2C188.873 12.84 188.983 12.46 189.203 12.06C189.423 11.64 189.723 11.29 190.103 11.01C190.463 10.63 190.863 10.29 191.303 9.99C191.743 9.69 192.183 9.43 192.623 9.21C193.083 8.99 193.493 8.83 193.853 8.73C194.073 8.73 194.363 8.76 194.723 8.82C195.083 8.88 195.333 8.95 195.473 9.03C195.693 9.11 195.903 9.33 196.103 9.69C196.303 10.03 196.403 10.37 196.403 10.71C196.403 10.85 196.363 11.03 196.283 11.25C196.203 11.47 196.073 11.73 195.893 12.03C195.813 12.25 195.723 12.46 195.623 12.66C195.523 12.84 195.473 12.97 195.473 13.05C195.373 13.27 195.233 13.38 195.053 13.38C194.893 13.36 194.723 13.27 194.543 13.11C194.383 12.93 194.253 12.72 194.153 12.48C194.073 12.18 194.043 11.94 194.063 11.76C194.083 11.56 194.163 11.35 194.303 11.13C194.523 10.91 194.633 10.76 194.633 10.68C194.633 10.6 194.523 10.56 194.303 10.56C194.163 10.56 193.903 10.65 193.523 10.83C193.163 10.99 192.773 11.21 192.353 11.49C191.953 11.75 191.603 12.03 191.303 12.33C190.923 12.69 190.693 12.95 190.613 13.11C190.553 13.27 190.523 13.52 190.523 13.86C190.523 14.14 190.583 14.49 190.703 14.91C190.843 15.33 190.983 15.61 191.123 15.75C191.123 15.75 191.193 15.89 191.333 16.17C191.473 16.43 191.643 16.71 191.843 17.01C192.423 18.29 192.573 19.21 192.293 19.77C192.013 20.33 191.283 20.65 190.103 20.73ZM200.178 22.5C199.518 22.4 199.068 22.15 198.828 21.75C198.608 21.37 198.558 20.78 198.678 19.98C198.798 19.6 198.868 19.26 198.888 18.96C198.928 18.64 199.018 18.44 199.158 18.36C199.158 18.36 199.168 18.33 199.188 18.27C199.228 18.21 199.218 18.15 199.158 18.09C199.158 17.83 199.248 17.47 199.428 17.01C199.468 16.89 199.518 16.75 199.578 16.59C199.658 16.41 199.698 16.32 199.698 16.32C199.598 16.16 199.598 16.03 199.698 15.93C199.798 15.83 199.898 15.74 199.998 15.66C200.118 15.56 200.128 15.45 200.028 15.33C199.988 15.25 200.038 15.07 200.178 14.79C200.318 14.49 200.478 14.18 200.658 13.86C200.838 13.54 200.958 13.29 201.018 13.11C201.018 13.07 201.068 12.93 201.168 12.69C201.268 12.45 201.388 12.17 201.528 11.85C201.668 11.53 201.798 11.24 201.918 10.98C202.058 10.72 202.148 10.55 202.188 10.47C202.388 10.37 202.308 10.3 201.948 10.26C201.588 10.22 201.208 10.21 200.808 10.23C200.188 10.21 199.688 10.18 199.308 10.14C198.948 10.1 198.648 10.01 198.408 9.87C198.168 9.59 198.078 9.39 198.138 9.27C198.218 9.13 198.458 9.05 198.858 9.03C199.118 9.01 199.318 9 199.458 9C199.618 9 199.818 8.99 200.058 8.97C200.318 8.93 200.718 8.88 201.258 8.82L202.788 8.7L202.878 8.19C203.038 7.93 203.168 7.7 203.268 7.5C203.388 7.28 203.488 7.06 203.568 6.84C203.648 6.62 203.708 6.39 203.748 6.15C203.748 6.15 203.838 5.99 204.018 5.67C204.198 5.33 204.308 4.98 204.348 4.62C204.588 4.22 204.798 3.86 204.978 3.54C205.158 3.2 205.268 2.99 205.308 2.91C205.528 2.73 205.678 2.64 205.758 2.64C205.858 2.64 206.058 2.74 206.358 2.94C206.538 3.04 206.698 3.16 206.838 3.3C206.978 3.44 207.068 3.59 207.108 3.75C207.148 3.89 207.088 4.03 206.928 4.17C206.888 4.25 206.828 4.4 206.748 4.62C206.668 4.82 206.608 4.99 206.568 5.13C206.448 5.27 206.298 5.5 206.118 5.82C205.958 6.12 205.848 6.43 205.788 6.75C205.628 7.09 205.478 7.4 205.338 7.68C205.198 7.94 205.088 8.07 205.008 8.07C205.048 8.27 205.168 8.37 205.368 8.37C205.568 8.35 205.898 8.33 206.358 8.31C206.738 8.27 206.998 8.23 207.138 8.19C207.298 8.13 207.478 8.15 207.678 8.25C207.778 8.39 207.858 8.55 207.918 8.73C207.978 8.91 207.988 9.08 207.948 9.24C207.928 9.38 207.848 9.48 207.708 9.54C207.608 9.54 207.398 9.6 207.078 9.72C206.778 9.82 206.398 9.88 205.938 9.9L204.348 10.05L203.838 11.07C203.698 11.33 203.578 11.57 203.478 11.79C203.378 11.99 203.308 12.11 203.268 12.15C203.268 12.27 203.198 12.45 203.058 12.69C202.938 12.93 202.808 13.19 202.668 13.47C202.548 13.81 202.408 14.12 202.248 14.4C202.108 14.68 202.038 14.82 202.038 14.82C201.958 14.82 201.918 14.88 201.918 15C202.018 15.24 201.988 15.42 201.828 15.54C201.728 15.6 201.638 15.69 201.558 15.81C201.498 15.91 201.468 15.96 201.468 15.96C201.548 16.04 201.558 16.14 201.498 16.26C201.458 16.38 201.398 16.51 201.318 16.65C201.318 16.81 201.268 17.04 201.168 17.34C201.088 17.64 200.998 17.92 200.898 18.18C200.918 18.54 200.938 18.77 200.958 18.87C200.978 18.97 201.028 19.01 201.108 18.99C201.208 19.01 201.298 19.01 201.378 18.99C201.458 18.97 201.538 18.96 201.618 18.96C201.898 18.84 201.748 19.54 201.168 21.06C200.848 21.56 200.628 21.92 200.508 22.14C200.388 22.38 200.278 22.5 200.178 22.5ZM208.909 20.07C208.609 20.03 208.349 19.82 208.129 19.44C207.929 19.04 207.809 18.68 207.769 18.36C207.789 18.2 207.809 17.97 207.829 17.67C207.869 17.37 207.909 17.06 207.949 16.74C208.029 16.36 208.139 15.9 208.279 15.36C208.419 14.8 208.559 14.24 208.699 13.68C208.859 13.12 208.999 12.64 209.119 12.24C209.239 11.84 209.319 11.6 209.359 11.52C209.459 11.36 209.619 11.32 209.839 11.4C210.059 11.48 210.239 11.6 210.379 11.76C210.499 11.92 210.569 12.11 210.589 12.33C210.629 12.55 210.599 12.87 210.499 13.29C210.419 13.71 210.259 14.33 210.019 15.15C209.799 15.95 209.629 16.6 209.509 17.1C209.409 17.58 209.369 18.09 209.389 18.63C209.309 19.31 209.249 19.73 209.209 19.89C209.169 20.03 209.069 20.09 208.909 20.07ZM212.359 8.1C212.279 8.16 212.199 8.19 212.119 8.19C212.059 8.17 211.949 8.11 211.789 8.01C211.649 7.99 211.469 7.9 211.249 7.74C211.049 7.56 210.869 7.38 210.709 7.2C210.569 7 210.499 6.88 210.499 6.84C210.479 6.64 210.489 6.39 210.529 6.09C210.589 5.77 210.699 5.49 210.859 5.25C211.019 4.99 211.249 4.85 211.549 4.83C211.629 4.83 211.699 4.84 211.759 4.86C211.819 4.88 211.999 4.95 212.299 5.07C212.459 5.37 212.619 5.71 212.779 6.09C212.939 6.45 213.009 6.81 212.989 7.17C212.969 7.51 212.759 7.82 212.359 8.1ZM216.275 20.67C215.695 20.77 215.165 20.74 214.685 20.58C214.205 20.4 213.815 20.11 213.515 19.71C213.235 19.29 213.095 18.76 213.095 18.12C213.035 17.52 213.105 16.83 213.305 16.05C213.505 15.25 213.795 14.45 214.175 13.65C214.575 12.85 215.005 12.16 215.465 11.58C215.865 11.1 216.265 10.66 216.665 10.26C217.065 9.86 217.425 9.59 217.745 9.45C218.025 9.33 218.285 9.26 218.525 9.24C218.785 9.2 218.995 9.18 219.155 9.18C219.475 9.26 219.815 9.41 220.175 9.63C220.555 9.83 220.745 10.05 220.745 10.29C220.745 10.29 220.765 10.32 220.805 10.38C220.865 10.42 220.895 10.44 220.895 10.44C221.015 10.44 221.115 10.57 221.195 10.83C221.295 11.09 221.355 11.39 221.375 11.73C221.395 12.05 221.345 12.32 221.225 12.54C221.145 12.92 221.005 13.25 220.805 13.53C220.605 13.81 220.425 13.95 220.265 13.95C220.185 13.95 220.105 13.96 220.025 13.98C219.965 13.98 219.935 14.03 219.935 14.13C219.935 14.23 219.875 14.27 219.755 14.25C219.655 14.23 219.545 14.17 219.425 14.07C219.305 13.95 219.215 13.81 219.155 13.65C219.155 13.55 219.195 13.38 219.275 13.14C219.355 12.9 219.435 12.59 219.515 12.21C219.635 11.65 219.625 11.29 219.485 11.13C219.345 10.95 219.075 10.94 218.675 11.1C218.175 11.38 217.695 11.77 217.235 12.27C216.795 12.77 216.385 13.42 216.005 14.22C215.625 15 215.285 15.98 214.985 17.16C214.865 17.62 214.815 18.02 214.835 18.36C214.875 18.7 214.925 18.88 214.985 18.9C215.265 18.98 215.645 19 216.125 18.96C216.605 18.9 216.955 18.81 217.175 18.69C217.495 18.53 217.855 18.32 218.255 18.06C218.655 17.78 219.005 17.53 219.305 17.31C219.405 17.25 219.525 17.15 219.665 17.01C219.805 16.87 219.955 16.76 220.115 16.68C220.275 16.44 220.415 16.3 220.535 16.26C220.655 16.22 220.835 16.2 221.075 16.2C221.235 16.24 221.385 16.3 221.525 16.38C221.665 16.46 221.755 16.54 221.795 16.62C221.855 16.7 221.825 16.77 221.705 16.83C221.625 16.83 221.575 16.86 221.555 16.92C221.555 16.96 221.555 16.98 221.555 16.98C221.595 17.06 221.505 17.23 221.285 17.49C221.085 17.73 220.825 18 220.505 18.3C220.185 18.6 219.875 18.86 219.575 19.08C219.295 19.28 219.095 19.38 218.975 19.38C218.775 19.38 218.675 19.44 218.675 19.56C218.675 19.6 218.525 19.7 218.225 19.86C217.945 20.02 217.615 20.18 217.235 20.34C216.875 20.5 216.555 20.61 216.275 20.67ZM220.355 7.68C220.215 7.54 220.105 7.33 220.025 7.05C219.965 6.77 219.945 6.59 219.965 6.51C219.985 6.41 220.115 6.21 220.355 5.91C220.615 5.61 220.915 5.28 221.255 4.92C221.595 4.56 221.915 4.24 222.215 3.96C222.535 3.68 222.765 3.51 222.905 3.45C223.125 3.31 223.335 3.34 223.535 3.54C223.735 3.72 223.935 3.97 224.135 4.29C224.195 4.47 224.115 4.69 223.895 4.95C223.695 5.19 223.425 5.45 223.085 5.73C222.745 6.01 222.405 6.29 222.065 6.57C221.745 6.83 221.505 7.07 221.345 7.29C221.145 7.61 220.985 7.8 220.865 7.86C220.765 7.92 220.595 7.86 220.355 7.68Z" fill="white"/>
</svg>
